<?xml version="1.0" encoding="UTF-8"?>
<!DOCTYPE svg
PUBLIC "-//W3C//DTD SVG 1.1//EN"
       "http://www.w3.org/Graphics/SVG/1.1/DTD/svg11.dtd">
<svg viewBox="76 -1 1145 490" width="1069px" height="491px" xmlns="http://www.w3.org/2000/svg" version="1.1">
   <line x1="104" y1="305" x2="94" y2="305" style="stroke:#333;stroke-width:1;"/>
   <line x1="105" y1="60" x2="115" y2="60" style="stroke:#333;stroke-width:1;"/>
   <line x1="94" y1="305" x2="105" y2="60" style="stroke:#333;stroke-width:1;"/>
   <line x1="96.5" y1="305" x2="100.03553390593" y2="308.53553390593" style="stroke:#333;stroke-width:2;"/>
   <line x1="96.5" y1="305" x2="100.03553390593" y2="301.46446609407" style="stroke:#333;stroke-width:2;"/>
   <line x1="110" y1="60" x2="106.46446609407" y2="63.535533905933" style="stroke:#333;stroke-width:2;"/>
   <line x1="110" y1="60" x2="106.46446609407" y2="56.464466094067" style="stroke:#333;stroke-width:2;"/>
   <line x1="104" y1="325" x2="94" y2="325" style="stroke:#0b0;stroke-width:1;"/>
   <line x1="81" y1="445" x2="91" y2="445" style="stroke:#0b0;stroke-width:1;"/>
   <line x1="94" y1="325" x2="81" y2="445" style="stroke:#0b0;stroke-width:1;"/>
   <line x1="96.5" y1="325" x2="100.03553390593" y2="328.53553390593" style="stroke:#0b0;stroke-width:2;"/>
   <line x1="96.5" y1="325" x2="100.03553390593" y2="321.46446609407" style="stroke:#0b0;stroke-width:2;"/>
   <line x1="86" y1="445" x2="82.464466094067" y2="448.53553390593" style="stroke:#0b0;stroke-width:2;"/>
   <line x1="86" y1="445" x2="82.464466094067" y2="441.46446609407" style="stroke:#0b0;stroke-width:2;"/>
   <line x1="440" y1="306" x2="430" y2="306" style="stroke:#0b0;stroke-width:1;"/>
   <line x1="237" y1="60" x2="227" y2="60" style="stroke:#0b0;stroke-width:1;"/>
   <line x1="430" y1="306" x2="237" y2="60" style="stroke:#0b0;stroke-width:1;"/>
   <line x1="432.5" y1="306" x2="436.03553390593" y2="309.53553390593" style="stroke:#0b0;stroke-width:2;"/>
   <line x1="432.5" y1="306" x2="436.03553390593" y2="302.46446609407" style="stroke:#0b0;stroke-width:2;"/>
   <line x1="232" y1="60" x2="235.53553390593" y2="63.535533905933" style="stroke:#0b0;stroke-width:2;"/>
   <line x1="232" y1="60" x2="235.53553390593" y2="56.464466094067" style="stroke:#0b0;stroke-width:2;"/>
   <line x1="552" y1="326" x2="562" y2="326" style="stroke:#b0b;stroke-width:1;"/>
   <line x1="716" y1="205" x2="726" y2="205" style="stroke:#b0b;stroke-width:1;"/>
   <line x1="562" y1="326" x2="716" y2="205" style="stroke:#b0b;stroke-width:1;"/>
   <line x1="559.5" y1="326" x2="555.96446609407" y2="329.53553390593" style="stroke:#b0b;stroke-width:2;"/>
   <line x1="559.5" y1="326" x2="555.96446609407" y2="322.46446609407" style="stroke:#b0b;stroke-width:2;"/>
   <line x1="721" y1="205" x2="717.46446609407" y2="208.53553390593" style="stroke:#b0b;stroke-width:2;"/>
   <line x1="721" y1="205" x2="717.46446609407" y2="201.46446609407" style="stroke:#b0b;stroke-width:2;"/>
   <line x1="1018" y1="157" x2="1008" y2="157" style="stroke:#0b0;stroke-width:1;"/>
   <line x1="848" y1="205" x2="838" y2="205" style="stroke:#0b0;stroke-width:1;"/>
   <line x1="1008" y1="157" x2="848" y2="205" style="stroke:#0b0;stroke-width:1;"/>
   <line x1="1010.5" y1="157" x2="1014.0355339059" y2="160.53553390593" style="stroke:#0b0;stroke-width:2;"/>
   <line x1="1010.5" y1="157" x2="1014.0355339059" y2="153.46446609407" style="stroke:#0b0;stroke-width:2;"/>
   <line x1="843" y1="205" x2="846.53553390593" y2="208.53553390593" style="stroke:#0b0;stroke-width:2;"/>
   <line x1="843" y1="205" x2="846.53553390593" y2="201.46446609407" style="stroke:#0b0;stroke-width:2;"/>
   <line x1="1018" y1="264" x2="1008" y2="264" style="stroke:#cb0;stroke-width:1;"/>
   <line x1="848" y1="205" x2="838" y2="205" style="stroke:#cb0;stroke-width:1;"/>
   <line x1="1008" y1="264" x2="848" y2="205" style="stroke:#cb0;stroke-width:1;"/>
   <line x1="1010.5" y1="264" x2="1014.0355339059" y2="267.53553390593" style="stroke:#cb0;stroke-width:2;"/>
   <line x1="1010.5" y1="264" x2="1014.0355339059" y2="260.46446609407" style="stroke:#cb0;stroke-width:2;"/>
   <line x1="843" y1="205" x2="846.53553390593" y2="208.53553390593" style="stroke:#cb0;stroke-width:2;"/>
   <line x1="843" y1="205" x2="846.53553390593" y2="201.46446609407" style="stroke:#cb0;stroke-width:2;"/>
   <line x1="467" y1="81" x2="457" y2="81" style="stroke:#b0b;stroke-width:1;"/>
   <line x1="430" y1="286" x2="440" y2="286" style="stroke:#b0b;stroke-width:1;"/>
   <line x1="457" y1="81" x2="430" y2="286" style="stroke:#b0b;stroke-width:1;"/>
   <line x1="459.5" y1="81" x2="463.03553390593" y2="84.535533905933" style="stroke:#b0b;stroke-width:2;"/>
   <line x1="459.5" y1="81" x2="463.03553390593" y2="77.464466094067" style="stroke:#b0b;stroke-width:2;"/>
   <line x1="435" y1="286" x2="431.46446609407" y2="289.53553390593" style="stroke:#b0b;stroke-width:2;"/>
   <line x1="435" y1="286" x2="431.46446609407" y2="282.46446609407" style="stroke:#b0b;stroke-width:2;"/>
   <line x1="579" y1="121" x2="589" y2="121" style="stroke:#b0b;stroke-width:1;"/>
   <line x1="796" y1="44" x2="806" y2="44" style="stroke:#b0b;stroke-width:1;"/>
   <line x1="589" y1="121" x2="796" y2="44" style="stroke:#b0b;stroke-width:1;"/>
   <line x1="586.5" y1="121" x2="582.96446609407" y2="124.53553390593" style="stroke:#b0b;stroke-width:2;"/>
   <line x1="586.5" y1="121" x2="582.96446609407" y2="117.46446609407" style="stroke:#b0b;stroke-width:2;"/>
   <line x1="801" y1="44" x2="797.46446609407" y2="47.535533905933" style="stroke:#b0b;stroke-width:2;"/>
   <line x1="801" y1="44" x2="797.46446609407" y2="40.464466094067" style="stroke:#b0b;stroke-width:2;"/>
   <rect width="112" height="20" x="115" y="30" style="fill:#007;stroke:black;"/>
   <text width="112" height="20" x="120" y="44" style="fill:#fff;" font-family="Arial" font-size="16px"> clan</text>
   <rect width="112" height="20" x="115" y="50" style="fill:#aea;stroke:black;"/>
   <text width="112" height="20" x="120" y="64" style="fill:black;" font-family="Arial" font-size="16px">id</text>
   <rect width="112" height="20" x="115" y="70" style="fill:none;stroke:black;"/>
   <text width="112" height="20" x="120" y="84" style="fill:black;" font-family="Arial" font-size="16px">ime</text>
   <rect width="112" height="20" x="115" y="90" style="fill:none;stroke:black;"/>
   <text width="112" height="20" x="120" y="104" style="fill:black;" font-family="Arial" font-size="16px">prezime</text>
   <rect width="112" height="20" x="115" y="110" style="fill:none;stroke:black;"/>
   <text width="112" height="20" x="120" y="124" style="fill:black;" font-family="Arial" font-size="16px">korisnickoIme</text>
   <rect width="112" height="20" x="115" y="130" style="fill:none;stroke:black;"/>
   <text width="112" height="20" x="120" y="144" style="fill:black;" font-family="Arial" font-size="16px">sifra</text>
   <rect width="112" height="20" x="115" y="150" style="fill:none;stroke:black;"/>
   <text width="112" height="20" x="120" y="164" style="fill:black;" font-family="Arial" font-size="16px">email</text>
   <rect width="112" height="20" x="115" y="170" style="fill:none;stroke:black;"/>
   <text width="112" height="20" x="120" y="184" style="fill:black;" font-family="Arial" font-size="16px">telefon</text>
   <rect width="112" height="20" x="104" y="275" style="fill:#007;stroke:black;"/>
   <text width="112" height="20" x="109" y="289" style="fill:#fff;" font-family="Arial" font-size="16px"> clan-tim</text>
   <rect width="112" height="20" x="104" y="295" style="fill:#aea;stroke:black;"/>
   <text width="112" height="20" x="109" y="309" style="fill:black;" font-family="Arial" font-size="16px">clan</text>
   <rect width="112" height="20" x="104" y="315" style="fill:#aea;stroke:black;"/>
   <text width="112" height="20" x="109" y="329" style="fill:black;" font-family="Arial" font-size="16px">tim</text>
   <rect width="112" height="20" x="104" y="335" style="fill:none;stroke:black;"/>
   <text width="112" height="20" x="109" y="349" style="fill:black;" font-family="Arial" font-size="16px">datumPocetka</text>
   <rect width="112" height="20" x="440" y="256" style="fill:#007;stroke:black;"/>
   <text width="112" height="20" x="445" y="270" style="fill:#fff;" font-family="Arial" font-size="16px"> faktura</text>
   <rect width="112" height="20" x="440" y="276" style="fill:#aea;stroke:black;"/>
   <text width="112" height="20" x="445" y="290" style="fill:black;" font-family="Arial" font-size="16px">id</text>
   <rect width="112" height="20" x="440" y="296" style="fill:none;stroke:black;"/>
   <text width="112" height="20" x="445" y="310" style="fill:black;" font-family="Arial" font-size="16px">clan</text>
   <rect width="112" height="20" x="440" y="316" style="fill:none;stroke:black;"/>
   <text width="112" height="20" x="445" y="330" style="fill:black;" font-family="Arial" font-size="16px">sponzor</text>
   <rect width="112" height="20" x="440" y="336" style="fill:none;stroke:black;"/>
   <text width="112" height="20" x="445" y="350" style="fill:black;" font-family="Arial" font-size="16px">datum</text>
   <rect width="112" height="20" x="440" y="356" style="fill:none;stroke:black;"/>
   <text width="112" height="20" x="445" y="370" style="fill:black;" font-family="Arial" font-size="16px">ukupnaCena</text>
   <rect width="112" height="20" x="440" y="376" style="fill:none;stroke:black;"/>
   <text width="112" height="20" x="445" y="390" style="fill:black;" font-family="Arial" font-size="16px">pdv</text>
   <rect width="112" height="20" x="440" y="396" style="fill:none;stroke:black;"/>
   <text width="112" height="20" x="445" y="410" style="fill:black;" font-family="Arial" font-size="16px">stornirana</text>
   <rect width="112" height="20" x="1018" y="127" style="fill:#007;stroke:black;"/>
   <text width="112" height="20" x="1023" y="141" style="fill:#fff;" font-family="Arial" font-size="16px"> fizickoLice</text>
   <rect width="112" height="20" x="1018" y="147" style="fill:#aea;stroke:black;"/>
   <text width="112" height="20" x="1023" y="161" style="fill:black;" font-family="Arial" font-size="16px">id</text>
   <rect width="112" height="20" x="1018" y="167" style="fill:none;stroke:black;"/>
   <text width="112" height="20" x="1023" y="181" style="fill:black;" font-family="Arial" font-size="16px">jmbg</text>
   <rect width="112" height="20" x="1018" y="234" style="fill:#007;stroke:black;"/>
   <text width="112" height="20" x="1023" y="248" style="fill:#fff;" font-family="Arial" font-size="16px"> pravnoLice</text>
   <rect width="112" height="20" x="1018" y="254" style="fill:#aea;stroke:black;"/>
   <text width="112" height="20" x="1023" y="268" style="fill:black;" font-family="Arial" font-size="16px">id</text>
   <rect width="112" height="20" x="1018" y="274" style="fill:none;stroke:black;"/>
   <text width="112" height="20" x="1023" y="288" style="fill:black;" font-family="Arial" font-size="16px">regBr</text>
   <rect width="112" height="20" x="1018" y="294" style="fill:none;stroke:black;"/>
   <text width="112" height="20" x="1023" y="308" style="fill:black;" font-family="Arial" font-size="16px">pib</text>
   <rect width="112" height="20" x="726" y="175" style="fill:#007;stroke:black;"/>
   <text width="112" height="20" x="731" y="189" style="fill:#fff;" font-family="Arial" font-size="16px"> sponzor</text>
   <rect width="112" height="20" x="726" y="195" style="fill:#aea;stroke:black;"/>
   <text width="112" height="20" x="731" y="209" style="fill:black;" font-family="Arial" font-size="16px">id</text>
   <rect width="112" height="20" x="726" y="215" style="fill:none;stroke:black;"/>
   <text width="112" height="20" x="731" y="229" style="fill:black;" font-family="Arial" font-size="16px">naziv</text>
   <rect width="112" height="20" x="726" y="235" style="fill:none;stroke:black;"/>
   <text width="112" height="20" x="731" y="249" style="fill:black;" font-family="Arial" font-size="16px">kontakt</text>
   <rect width="112" height="20" x="467" y="31" style="fill:#007;stroke:black;"/>
   <text width="112" height="20" x="472" y="45" style="fill:#fff;" font-family="Arial" font-size="16px"> stavkaFakture</text>
   <rect width="112" height="20" x="467" y="51" style="fill:#aea;stroke:black;"/>
   <text width="112" height="20" x="472" y="65" style="fill:black;" font-family="Arial" font-size="16px">id</text>
   <rect width="112" height="20" x="467" y="71" style="fill:#aea;stroke:black;"/>
   <text width="112" height="20" x="472" y="85" style="fill:black;" font-family="Arial" font-size="16px">faktura</text>
   <rect width="112" height="20" x="467" y="91" style="fill:none;stroke:black;"/>
   <text width="112" height="20" x="472" y="105" style="fill:black;" font-family="Arial" font-size="16px">kolicina</text>
   <rect width="112" height="20" x="467" y="111" style="fill:none;stroke:black;"/>
   <text width="112" height="20" x="472" y="125" style="fill:black;" font-family="Arial" font-size="16px">usluga</text>
   <rect width="112" height="20" x="91" y="415" style="fill:#007;stroke:black;"/>
   <text width="112" height="20" x="96" y="429" style="fill:#fff;" font-family="Arial" font-size="16px"> tim</text>
   <rect width="112" height="20" x="91" y="435" style="fill:#aea;stroke:black;"/>
   <text width="112" height="20" x="96" y="449" style="fill:black;" font-family="Arial" font-size="16px">id</text>
   <rect width="112" height="20" x="91" y="455" style="fill:none;stroke:black;"/>
   <text width="112" height="20" x="96" y="469" style="fill:black;" font-family="Arial" font-size="16px">naziv</text>
   <rect width="112" height="20" x="806" y="14" style="fill:#007;stroke:black;"/>
   <text width="112" height="20" x="811" y="28" style="fill:#fff;" font-family="Arial" font-size="16px"> usluga</text>
   <rect width="112" height="20" x="806" y="34" style="fill:#aea;stroke:black;"/>
   <text width="112" height="20" x="811" y="48" style="fill:black;" font-family="Arial" font-size="16px">id</text>
   <rect width="112" height="20" x="806" y="54" style="fill:none;stroke:black;"/>
   <text width="112" height="20" x="811" y="68" style="fill:black;" font-family="Arial" font-size="16px">naziv</text>
   <rect width="112" height="20" x="806" y="74" style="fill:none;stroke:black;"/>
   <text width="112" height="20" x="811" y="88" style="fill:black;" font-family="Arial" font-size="16px">cena</text>
</svg>
